# xmcd CD database file
#
# Track frame offsets:
#	150
#	11270
#	46302
#	57895
#	110468
#	131984
#	157648
#	198078
#	211975
#	226131
#
# Disc length: 3553 seconds
#
# Revision: 0
# Processed by: cddbd v1.5.2PL0 Copyright (c) Steve Scherf et al.
# Submitted via: CDex 1.70beta3
#
DISCID=750ddf0a
DTITLE=Honda Tamaya Ictus Trio - Ictus
DYEAR=2017
DGENRE=Jazz
TTITLE0=And Now the Queen
TTITLE1=Vashkar
TTITLE2=Batterie
TTITLE3=If Never Entered My Mind
TTITLE4=Kamiya
TTITLE5=Heaven
TTITLE6=Sad Song
TTITLE7=Violin
TTITLE8=Ictus
TTITLE9=Ishould Care
EXTD=YEAR: 2017
EXTT0=
EXTT1=
EXTT2=
EXTT3=
EXTT4=
EXTT5=
EXTT6=
EXTT7=
EXTT8=
EXTT9=
PLAYORDER=
